PathFileType	4	(X/Y/Z)	Kaydara																																																																																																																									
DataRate	CameraRate	NumFrames	NumMarkers	Units	OrigDataRate	OrigDataStartFrame	OrigNumFrames																																																																																																																					
30	30	4	41	mm	30	1	179																																																																																																																					
Frame#	Time	EMLA_LFHD			EMLA_RFHD			EMLA_LBHD			EMLA_RBHD			EMLA_LFTShould			EMLA_RFTShould			EMLA_LRRShould			EMLA_RRRShould			EMLA_T10			EMLA_STRN			EMLA_TRUN			EMLA_LSHO			EMLA_LUPA			EMLA_LELB			EMLA_LFRM			EMLA_LWRA			EMLA_LWRB			EMLA_LFIN			EMLA_RSHO			EMLA_RUPA			EMLA_RELB			EMLA_RFRM			EMLA_RWRA			EMLA_RWRB			EMLA_RFIN			EMLA_LFWT			EMLA_RFWT			EMLA_LBWT			EMLA_RBWT			EMLA_LTHI			EMLA_LKNE			EMLA_LSHN			EMLA_LANK			EMLA_LHEE			EMLA_LTOE			EMLA_RTHI			EMLA_RKNE			EMLA_RSHN			EMLA_RANK			EMLA_RHEE			EMLA_RTOE		
		X1	Y1	Z1	X2	Y2	Z2	X3	Y3	Z3	X4	Y4	Z4	X5	Y5	Z5	X6	Y6	Z6	X7	Y7	Z7	X8	Y8	Z8	X9	Y9	Z9	X10	Y10	Z10	X11	Y11	Z11	X12	Y12	Z12	X13	Y13	Z13	X14	Y14	Z14	X15	Y15	Z15	X16	Y16	Z16	X17	Y17	Z17	X18	Y18	Z18	X19	Y19	Z19	X20	Y20	Z20	X21	Y21	Z21	X22	Y22	Z22	X23	Y23	Z23	X24	Y24	Z24	X25	Y25	Z25	X26	Y26	Z26	X27	Y27	Z27	X28	Y28	Z28	X29	Y29	Z29	X30	Y30	Z30	X31	Y31	Z31	X32	Y32	Z32	X33	Y33	Z33	X34	Y34	Z34	X35	Y35	Z35	X36	Y36	Z36	X37	Y37	Z37	X38	Y38	Z38	X39	Y39	Z39	X40	Y40	Z40	X41	Y41	Z41
																																																																																																																												
1	0.01	240.7349	1645.68451	-1912.78503	69.18275	1642.09457	-1918.80646	259.59986	1626.23749	-2060.97366	64.69962	1625.79315	-2070.89203	240.43369	1411.74225	-1953.57574	93.80436	1401.2352	-1956.71722	238.98705	1446.41495	-2106.28952	83.03304	1435.01221	-2107.62451	176.89114	1266.9326	-2138.38226	167.48379	1345.31845	-1912.32483	163.4244	1244.05983	-1884.26971	367.66083	1431.24603	-2006.64566	422.58354	1247.57912	-2005.12207	437.62417	1102.97928	-1995.93964	435.67345	967.00066	-1978.97858	350.27992	832.9747	-1887.28989	408.86131	806.36734	-1942.8299	400.32887	779.73572	-1878.65448	-26.93089	1422.78198	-2026.62781	-77.11399	1227.3024	-2012.02515	-88.84313	1080.18814	-2019.24316	-86.59205	980.08835	-2015.42313	-17.28578	831.98654	-1896.81671	-63.54319	804.9511	-1962.99545	-73.85789	780.19859	-1903.6673	271.54675	991.92581	-1897.06528	36.02296	981.64658	-1918.68347	256.9788	1015.05386	-2095.78888	82.46654	1015.16083	-2096.92673	306.1137	726.21216	-2083.19092	307.00678	523.11653	-2044.78271	279.60468	342.9982	-2036.84662	285.71798	166.25223	-2109.80377	223.23452	84.58976	-2171.77048	248.15813	73.76943	-1971.49445	54.79194	716.99333	-2110.76736	26.7235	514.60247	-2052.96432	76.86796	294.74136	-2045.25345	45.23991	131.84916	-2124.48151	104.21852	77.63994	-2174.64752	67.97437	71.03413	-1973.90594
2	0.043	240.8839	1645.65491	-1912.70462	69.41531	1642.00974	-1918.5994	259.5924	1626.15829	-2060.6311	64.83542	1625.53879	-2070.72769	240.40415	1411.5683	-1953.39767	93.90969	1401.26205	-1956.60751	239.04751	1446.30936	-2106.18591	83.07878	1434.95529	-2107.37961	176.92045	1266.85211	-2138.25012	168.15199	1345.24261	-1911.89545	163.5021	1243.97423	-1884.10156	367.80838	1431.11923	-2006.60263	422.63512	1247.44934	-2005.05783	437.53555	1102.82898	-1995.80902	435.59422	966.88622	-1978.85544	350.22285	832.88506	-1887.0845	408.7748	806.25717	-1942.6886	400.28656	779.61388	-1878.51303	-26.85956	1422.73132	-2026.38702	-76.97474	1227.20215	-2011.77979	-88.47297	1080.0396	-2018.89069	-86.14725	979.98413	-2015.09872	-16.50975	831.91071	-1896.6066	-62.89233	804.85222	-1962.70813	-73.17842	780.11177	-1903.3461	271.57133	991.8586	-1896.82587	36.17857	981.70883	-1918.30841	256.97588	1015.04501	-2095.6102	82.40878	1015.07668	-2096.6571	306.15189	726.20865	-2083.09067	306.98116	523.10123	-2044.76334	279.57869	342.95746	-2036.80054	285.73244	166.28365	-2109.76761	223.22622	84.58748	-2171.77002	248.16889	73.75951	-1971.50391	54.60557	717.01035	-2110.36865	26.73907	514.566	-2052.74918	76.88335	294.71634	-2045.18356	45.18054	131.90675	-2124.46014	104.22569	77.69233	-2174.65439	68.00167	71.02767	-1973.90045
3	0.077	240.80029	1645.55176	-1912.53738	69.56463	1642.11304	-1918.53912	259.73829	1625.70526	-2060.73715	64.91271	1625.16388	-2070.5777	240.53553	1411.40732	-1953.15445	94.56326	1401.02661	-1955.8934	239.05859	1446.17355	-2105.86472	83.09705	1434.95636	-2107.15546	176.90784	1266.83228	-2138.06625	167.99631	1345.33218	-1912.03064	163.68135	1243.97972	-1883.8623	367.9208	1431.06155	-2006.54083	422.70439	1247.36412	-2005.02975	437.46223	1102.71332	-1995.71899	435.5278	966.77437	-1978.86032	350.10658	832.71805	-1887.19543	408.72459	806.16249	-1942.7565	400.21908	779.47098	-1878.50723	-26.81787	1422.68097	-2026.08032	-76.81183	1227.17949	-2011.58875	-88.2124	1079.98047	-2018.74878	-85.80462	979.90051	-2014.93515	-15.94433	831.74294	-1896.49811	-62.4142	804.77432	-1962.5882	-72.62186	780.01122	-1903.24127	271.96913	992.13829	-1895.504	36.33836	981.67007	-1918.06503	256.91938	1015.02228	-2095.4512	82.39245	1015.02892	-2096.37817	306.13749	726.22009	-2082.97653	307.03516	523.12126	-2044.7348	279.61046	343.00636	-2036.78528	285.63812	166.18692	-2110.20538	223.22746	84.6247	-2171.76224	248.16864	73.76027	-1971.48193	54.45841	717.03651	-2109.98657	26.77617	514.59026	-2052.5853	76.92111	294.72458	-2045.07996	45.2468	131.9071	-2124.42886	104.24227	77.6972	-2174.62753	67.99207	71.0334	-1973.89359
4	0.11	240.74085	1645.37323	-1912.45117	69.6516	1642.15668	-1918.60016	259.83343	1625.11719	-2060.69305	65.04081	1624.74792	-2070.57098	240.56543	1411.26068	-1952.9071	94.18713	1400.91049	-1955.99792	239.05338	1446.13571	-2105.60501	83.07998	1434.94034	-2106.90521	176.91944	1266.85059	-2137.87643	168.02235	1345.16342	-1911.8219	163.84815	1243.86009	-1883.70651	367.97329	1431.00906	-2006.35605	422.72858	1247.31384	-2004.95285	437.42989	1102.61581	-1995.72845	435.47142	966.72768	-1978.97202	350.1696	832.67128	-1887.32574	408.68111	806.05675	-1942.95349	400.26699	779.36256	-1878.75763	-26.78919	1422.59888	-2025.75348	-76.73885	1227.108	-2011.41327	-88.04645	1079.89731	-2018.59589	-85.58716	979.78943	-2014.83978	-15.60334	831.67969	-1896.53412	-62.06187	804.65004	-1962.6825	-72.229	779.80873	-1903.2814	272.00134	992.00836	-1895.65125	36.38601	981.47942	-1917.80075	256.90289	1014.93378	-2095.33234	82.34091	1014.9762	-2096.138	306.14222	726.21048	-2082.89581	307.04397	523.09002	-2044.65576	279.60018	342.96665	-2036.72882	285.62862	166.20846	-2110.16434	223.20889	84.6496	-2171.7659	248.16652	73.74907	-1971.47964	54.59412	717.04025	-2109.82101	26.83091	514.6125	-2052.45239	76.99172	294.68521	-2045.00198	45.2528	131.95173	-2124.46625	104.27272	77.66264	-2174.58206	68.01573	71.00857	-1973.89206
